<svg width="26" height="29" viewBox="0 0 26 29" fill="none" xmlns="http://www.w3.org/2000/svg">
<path d="M10.104 0.112305C10.3398 0.112305 10.5659 0.205701 10.7327 0.371947C10.8994 0.538193 10.9931 0.763672 10.9931 0.998779V4.54468C10.9931 4.77979 10.8994 5.00526 10.7327 5.17151C10.5659 5.33776 10.3398 5.43115 10.104 5.43115C9.8682 5.43115 9.64207 5.33776 9.47533 5.17151C9.3086 5.00526 9.21493 4.77979 9.21493 4.54468V0.998779C9.21493 0.763672 9.3086 0.538193 9.47533 0.371947C9.64207 0.205701 9.8682 0.112305 10.104 0.112305ZM3.18703 2.96675C3.26961 2.8842 3.36772 2.8187 3.47574 2.77401C3.58375 2.72932 3.69955 2.70632 3.81649 2.70632C3.93343 2.70632 4.04923 2.72932 4.15724 2.77401C4.26525 2.8187 4.36336 2.8842 4.44595 2.96675L6.96024 5.47548C7.04516 5.55725 7.11289 5.65507 7.15949 5.76322C7.20608 5.87138 7.23061 5.9877 7.23163 6.1054C7.23266 6.22311 7.21016 6.33984 7.16546 6.44878C7.12076 6.55773 7.05474 6.65671 6.97126 6.73994C6.88779 6.82317 6.78852 6.889 6.67926 6.93357C6.56999 6.97814 6.45292 7.00057 6.33487 6.99955C6.21682 6.99853 6.10016 6.97407 5.99169 6.92761C5.88322 6.88115 5.78511 6.81362 5.7031 6.72895L3.18881 4.222C3.02213 4.05576 2.9285 3.83032 2.9285 3.59526C2.9285 3.3602 3.02213 3.13476 3.18881 2.96853M17.0227 2.96853C17.1055 3.05087 17.1712 3.1487 17.2161 3.25639C17.2609 3.36409 17.2839 3.47955 17.2839 3.59615C17.2839 3.71275 17.2609 3.82821 17.2161 3.93591C17.1712 4.04361 17.1055 4.14143 17.0227 4.22377L14.5031 6.72895C14.4211 6.81362 14.323 6.88115 14.2145 6.92761C14.1061 6.97407 13.9894 6.99853 13.8714 6.99955C13.7533 7.00057 13.6362 6.97814 13.527 6.93357C13.4177 6.889 13.3184 6.82317 13.235 6.73994C13.1515 6.65671 13.0855 6.55773 13.0408 6.44878C12.9961 6.33984 12.9736 6.22311 12.9746 6.1054C12.9756 5.9877 13.0001 5.87138 13.0467 5.76322C13.0933 5.65507 13.1611 5.55725 13.246 5.47548L15.7603 2.96853C15.927 2.80234 16.1531 2.70898 16.3888 2.70898C16.6246 2.70898 16.8507 2.80234 17.0174 2.96853M0.324219 9.86353C0.324219 9.62842 0.417889 9.40294 0.584622 9.23669C0.751355 9.07045 0.977493 8.97705 1.21329 8.97705H4.76957C5.00537 8.97705 5.23151 9.07045 5.39824 9.23669C5.56497 9.40294 5.65864 9.62842 5.65864 9.86353C5.65864 10.0986 5.56497 10.3241 5.39824 10.4904C5.23151 10.6566 5.00537 10.75 4.76957 10.75H1.21329C0.977493 10.75 0.751355 10.6566 0.584622 10.4904C0.417889 10.3241 0.324219 10.0986 0.324219 9.86353ZM10.104 10.8067V27.2242C10.1037 27.3998 10.1557 27.5715 10.2533 27.7176C10.351 27.8636 10.49 27.9775 10.6526 28.0447C10.8153 28.112 10.9943 28.1295 11.167 28.0952C11.3396 28.0608 11.4982 27.9762 11.6225 27.8519L16.1746 23.3131C16.8414 22.6481 17.7458 22.2744 18.6889 22.2742H24.4358C24.6204 22.274 24.8003 22.2166 24.9507 22.1099C25.101 22.0032 25.2144 21.8525 25.275 21.6787C25.3355 21.5049 25.3404 21.3166 25.2888 21.1399C25.2372 20.9632 25.1317 20.8069 24.987 20.6927L11.5443 10.11C11.4132 10.0067 11.2555 9.94228 11.0894 9.92423C10.9232 9.90619 10.7553 9.9352 10.605 10.0079C10.4546 10.0807 10.3279 10.1942 10.2393 10.3355C10.1506 10.4768 10.1038 10.6401 10.104 10.8067Z" fill="white"/>
</svg>
