<svg width="20" height="23" viewBox="0 0 20 23" fill="none" xmlns="http://www.w3.org/2000/svg">
<path opacity="0.3" d="M15.0029 5.7184C15.4632 5.7184 15.8364 5.29169 15.8364 4.76533C15.8364 4.23896 15.4632 3.81226 15.0029 3.81226C14.5426 3.81226 14.1694 4.23896 14.1694 4.76533C14.1694 5.29169 14.5426 5.7184 15.0029 5.7184Z" fill="black"/>
<path opacity="0.3" d="M5.00097 12.39C5.46129 12.39 5.83446 11.9633 5.83446 11.437C5.83446 10.9106 5.46129 10.4839 5.00097 10.4839C4.54065 10.4839 4.16748 10.9106 4.16748 11.437C4.16748 11.9633 4.54065 12.39 5.00097 12.39Z" fill="black"/>
<path opacity="0.3" d="M15.0029 19.0805C15.4632 19.0805 15.8364 18.6538 15.8364 18.1274C15.8364 17.601 15.4632 17.1743 15.0029 17.1743C14.5426 17.1743 14.1694 17.601 14.1694 18.1274C14.1694 18.6538 14.5426 19.0805 15.0029 19.0805Z" fill="black"/>
<path d="M15.0028 15.3255C14.3694 15.3255 13.8026 15.6114 13.3692 16.0594L7.42641 12.1041C7.46809 11.8849 7.50143 11.6657 7.50143 11.437C7.50143 11.2082 7.46809 10.989 7.42641 10.7698L13.3025 6.85269C13.7526 7.32922 14.3444 7.62468 15.0028 7.62468C16.3864 7.62468 17.5033 6.34756 17.5033 4.76546C17.5033 3.18337 16.3864 1.90625 15.0028 1.90625C13.6192 1.90625 12.5024 3.18337 12.5024 4.76546C12.5024 4.9942 12.5357 5.21341 12.5774 5.43261L6.70128 9.34974C6.25119 8.8732 5.65941 8.57775 5.00096 8.57775C3.61736 8.57775 2.50049 9.85486 2.50049 11.437C2.50049 13.0191 3.61736 14.2962 5.00096 14.2962C5.65941 14.2962 6.25119 14.0007 6.70128 13.5242L12.6357 17.489C12.5941 17.6891 12.569 17.8988 12.569 18.1085C12.569 19.6429 13.6609 20.8914 15.0028 20.8914C16.3448 20.8914 17.4366 19.6429 17.4366 18.1085C17.4366 16.574 16.3448 15.3255 15.0028 15.3255ZM15.0028 3.81239C15.4613 3.81239 15.8363 4.24127 15.8363 4.76546C15.8363 5.28965 15.4613 5.71853 15.0028 5.71853C14.5444 5.71853 14.1693 5.28965 14.1693 4.76546C14.1693 4.24127 14.5444 3.81239 15.0028 3.81239ZM5.00096 12.39C4.54254 12.39 4.16747 11.9611 4.16747 11.437C4.16747 10.9128 4.54254 10.4839 5.00096 10.4839C5.45938 10.4839 5.83445 10.9128 5.83445 11.437C5.83445 11.9611 5.45938 12.39 5.00096 12.39ZM15.0028 19.0806C14.5444 19.0806 14.1693 18.6517 14.1693 18.1275C14.1693 17.6033 14.5444 17.1744 15.0028 17.1744C15.4613 17.1744 15.8363 17.6033 15.8363 18.1275C15.8363 18.6517 15.4613 19.0806 15.0028 19.0806Z" fill="black"/>
</svg>
